<?xml version="1.0" encoding="UTF-8"?>
<svg id="logo-16" xmlns="http://www.w3.org/2000/svg" width="109" height="43" viewBox="0 0 109 43">
  <path d="m64.93,11.43c-2.74-2.74-6-4.92-9.58-6.4-3.58-1.48-7.43-2.25-11.31-2.25s-7.72.76-11.31,2.25c-3.58,1.48-6.84,3.66-9.58,6.4l20.89,20.89,20.89-20.89Z" fill="#ffd200" stroke-width="0"/>
  <path d="m44.07,32.35c2.74,2.74,6,4.92,9.58,6.4,3.58,1.48,7.43,2.25,11.31,2.25s7.72-.76,11.31-2.25,6.84-3.66,9.58-6.4l-20.89-20.89-20.89,20.89Z" fill="#06e07f" stroke-width="0"/>
  <path d="m44.02,32.34c-2.74,2.74-6,4.92-9.58,6.4-3.58,1.48-7.43,2.25-11.31,2.25s-7.72-.76-11.31-2.25c-3.58-1.48-6.84-3.66-9.58-6.4L23.13,11.45l20.89,20.89Z" fill="#e3073c" stroke-width="0"/>
  <path d="m64.98,11.43c2.74-2.74,6-4.92,9.58-6.4s7.43-2.25,11.31-2.25,7.72.76,11.31,2.25,6.84,3.66,9.58,6.4l-20.89,20.89-20.89-20.89Z" fill="#fff" stroke-width="0"/>
</svg>