<?xml version="1.0" encoding="UTF-8"?><svg id="Layer_1" xmlns="http://www.w3.org/2000/svg" width="2111.74" height="175.21" viewBox="0 0 2111.74 175.21"><path d="m36.21,7.87c3.15,0,8.66-.59,13.38-1.18-.59,12.2-1.57,20.46-1.57,57.07,0,7.08-.2,24.2-.2,37.19,0,6.49.2,12.99.2,18.69,0,7.87-.2,16.33-2.95,24.2-4.53,12.59-13.18,24.79-43.68,27.16L0,161.55c9.64-.98,16.14-4.13,19.48-10.43,3.74-7.08,3.94-18.5,3.94-34.44V40.14c0-4.53-.59-20.86-1.57-33.45,4.72.59,11.81,1.18,14.36,1.18Z" fill="#16341d" stroke-width="0"/><path d="m68.67,7.87c4.13,0,8.07-.39,12.79-1.18-.98,24.01-1.18,37.58-1.18,48.6v21.65c0,11.81.2,20.66.79,26.56,1.77,17.91,14.76,26.96,35.42,26.96,12.4,0,23.42-5.12,29.12-13.18,6.1-8.66,6.3-16.73,6.3-35.22,0-22.04-.2-48.8-1.77-75.37,4.33,1.18,7.28,1.18,8.85,1.18s5.9-.2,9.25-1.18c-.79,9.84-1.18,28.73-1.77,47.03-1.18,32.86,1.18,53.33-6.69,67.69-7.48,13.58-25.58,22.63-47.23,22.63-35.62,0-56.67-15.94-56.67-45.65v-58.64c0-10.43-.2-21.25-.98-33.06,4.53.59,9.25,1.18,13.77,1.18Z" fill="#16341d" stroke-width="0"/><path d="m174.14,6.69c1.77.39,2.95.39,4.72.39,1.57,0,2.95-.2,4.53-.39,16.33,17.91,34.63,37.19,50.38,52.74l32.86,32.27c.98.98,3.54,3.54,9.84,8.46v-45.85c0-13.18-.79-32.07-2.36-47.62,2.95.79,5.12,1.18,8.46,1.18s5.71-.39,8.26-1.18c-1.57,19.28-2.16,43.09-2.16,68.08,0,22.43.2,45.46.39,67.89-1.77-.39-2.95-.39-4.13-.39-.59,0-2.56.2-3.94.39-25.58-27.35-68.68-71.04-94.26-94.45,0,32.47,0,71.04,2.36,93.47-4.13-.79-7.48-1.18-8.85-1.18-2.56,0-4.92.39-7.87,1.18,1.77-25.38,2.16-40.93,2.16-55.49,0-22.04-.39-60.8-.39-79.5Z" fill="#16341d" stroke-width="0"/><path d="m310.7,7.87c3.74,0,8.26-.39,13.77-1.18-1.57,9.64-2.16,33.26-2.16,53.72,0,54.51.59,63.36,1.97,81.27-7.48-.79-11.22-1.18-13.77-1.18-4.33,0-10.63.98-14.17,1.18,1.57-17.32,2.16-45.06,2.16-77.14,0-40.93-.79-50.38-1.97-57.85,2.75.39,12.59,1.18,14.17,1.18Z" fill="#16341d" stroke-width="0"/><path d="m332.58,45.26c0-7.67-.79-25.78-1.38-38.57,4.53.59,12,.98,19.09.98,2.75,0,26.76-.98,30.11-.98,26.37,0,39.55,15.94,39.55,34.63,0,24.6-17.12,40.73-49.59,40.73-4.92,0-8.85-.39-13.58-.79v31.88c0,11.81.59,20.66,1.38,28.53-4.92-.79-8.85-1.18-13.77-1.18-5.31,0-9.45.39-13.58,1.18.59-10.23,1.38-20.86,1.38-30.11l.39-66.31Zm24.2,26.37c4.53.59,7.28.79,10.63.79,17.71,0,27.16-13.38,27.16-29.32,0-16.73-8.66-26.76-24.4-26.76-3.94,0-8.07.2-13.38.79v54.51Z" fill="#16341d" stroke-width="0"/><path d="m458.75,7.87c4.72,0,10.23-.2,36.4-1.18-.79,2.75-.98,4.13-.98,6.49,0,2.56.39,5.31.98,7.08-7.87-.2-15.74-.98-23.61-1.18s-15.94-.2-22.24-.2v46.24c17.12,0,36.99-.59,42.5-1.38-.79,2.56-.98,4.53-.98,7.08s.39,5.12.98,6.69c-13.77-1.18-25.58-1.38-42.5-1.38v53.33c8.46,0,36.6-.79,47.03-1.38-.79,1.77-.98,3.54-.98,6.49s.2,4.92.98,7.08c-12-.79-24.01-1.18-36.01-1.18s-23.02.39-36.99,1.18c1.18-20.86,1.77-50.38,1.77-68.68,0-14.56-.59-48.8-1.77-66.31,15.94.98,28.53,1.18,35.42,1.18Z" fill="#16341d" stroke-width="0"/><path d="m519.91,7.67c3.74,0,31.68-.98,34.63-.98,29.12,0,38.17,16.73,38.17,32.27,0,18.3-12.4,31.68-34.24,35.81l13.38,19.28c1.18,1.77,19.68,28.14,35.62,47.62-7.08-.79-11.02-1.18-17.51-1.18-5.51,0-9.05.39-15.94,1.18-7.87-12.2-6.49-12.59-43.09-64.15h-4.72v28.73c0,3.74.79,31.68.79,35.42-4.13-.39-8.26-1.18-13.18-1.18-4.53,0-9.05.59-13.58,1.18.79-19.87,1.77-47.42,1.77-61.39v-33.85c0-9.25-.39-21.45-1.38-39.75,4.53.59,11.61.98,19.28.98Zm6.3,60.61c8.07.39,9.05.59,13.38.59,17.32,0,27.16-11.61,27.16-27.16s-6.1-24.79-25.97-25.38c-2.56,0-9.05.39-14.56.98v50.97Z" fill="#16341d" stroke-width="0"/><path d="m652.14,7.87c1.57,0,12-.79,13.58-1.18-1.38,12-1.77,30.3-1.77,56.08,9.45.59,21.84.79,29.91.79,11.81,0,33.26-.79,35.62-.79,0-15.35-.2-39.55-1.38-56.08,4.13.59,11.81,1.18,14.36,1.18,1.38,0,11.41-.79,13.77-1.18-1.38,9.25-2.75,36.21-2.75,88.75,0,25.38.59,37.78,1.97,46.24-4.72-.39-9.84-1.18-14.36-1.18s-9.25.79-13.38,1.18c0-.98,1.57-27.75,1.57-33.06l.2-33.26c-11.81-.59-27.75-.79-31.88-.79-11.22,0-29.32.79-33.65.79v23.22c0,13.18.2,25.97,1.77,43.09l-5.71-.59c-2.36-.39-4.92-.59-7.87-.59-4.92,0-8.85.79-13.97,1.18,1.38-26.17,1.77-53.33,1.77-87.76,0-18.89-.59-31.68-1.97-47.23,8.85,1.18,13.18,1.18,14.17,1.18Z" fill="#16341d" stroke-width="0"/><path d="m776.53,7.87c3.74,0,8.26-.39,13.77-1.18-1.57,9.64-2.16,33.26-2.16,53.72,0,54.51.59,63.36,1.97,81.27-7.48-.79-11.22-1.18-13.77-1.18-4.33,0-10.63.98-14.17,1.18,1.57-17.32,2.16-45.06,2.16-77.14,0-40.93-.79-50.38-1.97-57.85,2.75.39,12.59,1.18,14.17,1.18Z" fill="#16341d" stroke-width="0"/><path d="m810.03,7.87c4.92,0,8.85-.39,13.97-1.18-.98,24.6-1.97,50.57-1.97,76.55,0,15.15.2,30.3.59,45.65h4.92c18.89,0,39.36-.79,44.27-1.77-.79,2.36-.98,4.33-.98,7.67,0,3.15.2,3.94.98,6.89-20.86-.98-33.06-.98-37.98-1.18-4.92,0-18.89.2-37.19,1.18.39-18.5,1.38-42.7,1.38-53.13v-35.22c0-2.16-1.18-38.17-1.38-46.64,3.15.79,9.25,1.18,13.38,1.18Z" fill="#16341d" stroke-width="0"/><path d="m889.24,7.87c4.92,0,8.85-.39,13.97-1.18-.98,24.6-1.97,50.57-1.97,76.55,0,15.15.2,30.3.59,45.65h4.92c18.89,0,39.36-.79,44.27-1.77-.79,2.36-.98,4.33-.98,7.67,0,3.15.2,3.94.98,6.89-20.86-.98-33.06-.98-37.98-1.18-4.92,0-18.89.2-37.19,1.18.39-18.5,1.38-42.7,1.38-53.13v-35.22c0-2.16-1.18-38.17-1.38-46.64,3.15.79,9.25,1.18,13.38,1.18Z" fill="#16341d" stroke-width="0"/><path d="m1104.9,14.95l-5.9,19.28h-1.97c-6.49-13.38-19.68-18.5-37.58-18.5-32.47,0-50.38,21.45-50.38,59.23,0,16.73,4.33,31.29,12.59,41.72,8.07,10.43,20.07,16.92,35.22,16.92,11.02,0,21.25-2.95,27.75-7.08,0-1.77.59-14.76.59-17.51,0-8.85,0-11.61-1.18-29.32,4.53.79,8.66,1.38,13.97,1.38,4.53,0,6.69-.39,12.4-1.38-1.18,6.1-1.57,23.22-1.57,33.65,0,6.1,0,11.02.59,17.32-15.74,8.46-37.58,13.77-57.07,13.77-39.16,0-70.25-25.19-70.25-66.9s24.99-72.41,76.74-72.41c15.94,0,30.3,2.75,46.05,9.84Z" fill="#16341d" stroke-width="0"/><path d="m1262.25,72.21c0,42.9-28.93,72.22-72.22,72.22s-74.58-24.4-74.58-66.31c0-48.8,31.48-73,73.99-73s72.81,25.97,72.81,67.1Zm-73.4,62.18c27.75,0,46.44-23.42,46.44-59.62,0-38.37-16.14-59.62-46.64-59.62s-46.24,27.16-46.24,59.62c0,34.44,16.33,59.62,46.44,59.62Z" fill="#16341d" stroke-width="0"/><path d="m1280.47,7.87c4.92,0,8.85-.39,13.97-1.18-.98,24.6-1.97,50.57-1.97,76.55,0,15.15.2,30.3.59,45.65h4.92c18.89,0,39.36-.79,44.27-1.77-.79,2.36-.98,4.33-.98,7.67,0,3.15.2,3.94.98,6.89-20.86-.98-33.06-.98-37.98-1.18-4.92,0-18.89.2-37.19,1.18.39-18.5,1.38-42.7,1.38-53.13v-35.22c0-2.16-1.18-38.17-1.38-46.64,3.15.79,9.25,1.18,13.38,1.18Z" fill="#16341d" stroke-width="0"/><path d="m1383.66,7.87c10.04,0,22.04-.59,36.99-1.18-.79,3.15-.98,5.12-.98,7.48,0,2.56.2,4.13.98,6.49-27.94-1.57-32.27-1.77-48.21-1.77v45.85h16.14c6.89,0,19.68-.39,28.93-.98-.59,1.97-.98,4.13-.98,6.49,0,1.77.2,2.95.98,6.69-11.02-.39-20.66-.79-29.32-.79h-15.74v48.01c0,2.36.39,14.76.98,17.51-4.53-.98-9.05-1.18-13.97-1.18-5.71,0-9.05.39-12.99,1.18.98-19.87,1.77-36.99,1.77-65.33,0-20.86,0-32.27-1.97-69.66,6.69.39,29.32,1.18,37.39,1.18Z" fill="#16341d" stroke-width="0"/><path d="m1575.12,14.95l-5.9,19.28h-1.97c-6.49-13.38-19.87-18.5-37.58-18.5-32.47,0-50.38,21.45-50.38,59.03s21.25,58.84,47.23,58.84c18.1,0,32.47-6.1,45.85-22.43l2.16,1.38-2.16,19.48c-14.96,8.46-31.68,12.4-49.59,12.4-40.14,0-70.45-25.38-70.45-68.08s25.78-71.23,76.74-71.23c15.94,0,30.3,2.75,46.05,9.84Z" fill="#16341d" stroke-width="0"/><path d="m1718.85,72.21c0,42.9-28.93,72.22-72.22,72.22s-74.58-24.4-74.58-66.31c0-48.8,31.48-73,73.99-73s72.81,25.97,72.81,67.1Zm-73.4,62.18c27.75,0,46.44-23.42,46.44-59.62,0-38.37-16.14-59.62-46.64-59.62s-46.24,27.16-46.24,59.62c0,34.44,16.33,59.62,46.44,59.62Z" fill="#16341d" stroke-width="0"/><path d="m1737.66,7.87c4.13,0,8.07-.39,12.79-1.18-.98,24.01-1.18,37.58-1.18,48.6v21.65c0,11.81.2,20.66.79,26.56,1.77,17.91,14.76,26.96,35.42,26.96,12.4,0,23.42-5.12,29.12-13.18,6.1-8.66,6.3-16.73,6.3-35.22,0-22.04-.2-48.8-1.77-75.37,4.33,1.18,7.28,1.18,8.85,1.18s5.9-.2,9.25-1.18c-.79,9.84-1.18,28.73-1.77,47.03-1.18,32.86,1.18,53.33-6.69,67.69-7.48,13.58-25.58,22.63-47.23,22.63-35.62,0-56.67-15.94-56.67-45.65v-58.64c0-10.43-.2-21.25-.98-33.06,4.53.59,9.25,1.18,13.77,1.18Z" fill="#16341d" stroke-width="0"/><path d="m1863.18,7.67c3.74,0,31.68-.98,34.63-.98,29.12,0,38.17,16.73,38.17,32.27,0,18.3-12.4,31.68-34.24,35.81l13.38,19.28c1.18,1.77,19.68,28.14,35.62,47.62-7.08-.79-11.02-1.18-17.51-1.18-5.51,0-9.05.39-15.94,1.18-7.87-12.2-6.49-12.59-43.09-64.15h-4.72v28.73c0,3.74.79,31.68.79,35.42-4.13-.39-8.26-1.18-13.18-1.18-4.53,0-9.05.59-13.58,1.18.79-19.87,1.77-47.42,1.77-61.39v-33.85c0-9.25-.39-21.45-1.38-39.75,4.53.59,11.61.98,19.28.98Zm6.3,60.61c8.07.39,9.05.59,13.38.59,17.32,0,27.16-11.61,27.16-27.16s-6.1-24.79-25.97-25.38c-2.56,0-9.05.39-14.56.98v50.97Z" fill="#16341d" stroke-width="0"/><path d="m2027.57,13.18c-4.33,10.82-5.31,14.56-6.1,18.69h-2.75c-3.15-11.02-12.99-17.12-25.78-17.12-14.36,0-23.22,8.66-23.22,21.25,0,11.41,4.92,17.32,29.32,25.78,12.4,4.33,20.86,8.46,26.17,14.96,6.1,7.48,8.26,17.12,8.26,24.6,0,24.01-18.69,43.09-48.21,43.09-13.18,0-23.61-2.36-38.57-10.04,3.15-10.23,3.35-11.02,4.53-22.04h2.75c6.49,14.17,14.17,22.43,30.3,22.43s25.97-10.43,25.97-24.6c0-9.84-4.13-18.1-19.68-24.2l-9.45-3.74c-22.04-8.66-32.07-16.33-32.07-37.78,0-23.42,16.53-39.36,45.85-39.36,10.82,0,19.48,1.97,32.67,8.07Z" fill="#16341d" stroke-width="0"/><path d="m2074.16,7.87c4.72,0,10.23-.2,36.4-1.18-.79,2.75-.98,4.13-.98,6.49,0,2.56.39,5.31.98,7.08-7.87-.2-15.74-.98-23.61-1.18s-15.94-.2-22.24-.2v46.24c17.12,0,36.99-.59,42.5-1.38-.79,2.56-.98,4.53-.98,7.08s.39,5.12.98,6.69c-13.77-1.18-25.58-1.38-42.5-1.38v53.33c8.46,0,36.6-.79,47.03-1.38-.79,1.77-.98,3.54-.98,6.49s.2,4.92.98,7.08c-12-.79-24.01-1.18-36.01-1.18s-23.02.39-36.99,1.18c1.18-20.86,1.77-50.38,1.77-68.68,0-14.56-.59-48.8-1.77-66.31,15.94.98,28.53,1.18,35.42,1.18Z" fill="#16341d" stroke-width="0"/></svg>