<?xml version="1.0" encoding="UTF-8"?>
<svg id="logo-87" xmlns="http://www.w3.org/2000/svg" viewBox="0 0 202 40">
  <defs>
    <style>
      .cls-1 {
        fill-rule: evenodd;
      }

      .cls-1, .cls-2 {
        fill: #fff;
        stroke-width: 0px;
      }
    </style>
  </defs>
  <path class="cls-1" d="m25.56,11.69c-1.64-1.1-3.58-1.69-5.56-1.69V0c3.96,0,7.82,1.17,11.11,3.37,3.29,2.2,5.85,5.32,7.37,8.98,1.51,3.65,1.91,7.68,1.14,11.56-.77,3.88-2.68,7.44-5.47,10.24-2.8,2.8-6.36,4.7-10.24,5.47-3.88.77-7.9.38-11.56-1.14-3.65-1.51-6.78-4.08-8.98-7.37-2.2-3.29-3.37-7.16-3.37-11.11h10c0,1.98.59,3.91,1.69,5.56,1.1,1.64,2.66,2.93,4.49,3.68,1.83.76,3.84.95,5.78.57,1.94-.39,3.72-1.34,5.12-2.74,1.4-1.4,2.35-3.18,2.74-5.12.39-1.94.19-3.95-.57-5.78-.76-1.83-2.04-3.39-3.68-4.49Z"/>
  <path class="cls-1" d="m10,0c0,1.31-.26,2.61-.76,3.83-.5,1.21-1.24,2.32-2.17,3.24-.93.93-2.03,1.67-3.24,2.17C2.61,9.74,1.31,10,0,10v10c2.63,0,5.23-.52,7.65-1.52,2.43-1.01,4.63-2.48,6.49-4.34,1.86-1.86,3.33-4.06,4.34-6.49C19.48,5.23,20,2.63,20,0h-10Z"/>
  <path class="cls-2" d="m125.62,14.45h-4.85v15.41h4.85v-15.41Z"/>
  <path class="cls-2" d="m121.31,11.57c.51.51,1.14.76,1.9.76s1.39-.25,1.87-.76c.49-.53.73-1.16.73-1.9s-.24-1.4-.73-1.9c-.49-.51-1.11-.76-1.87-.76s-1.39.25-1.9.76c-.49.51-.73,1.14-.73,1.9s.24,1.37.73,1.9Z"/>
  <path class="cls-2" d="m51.16,29.86V7.48h4.98v18.01h9.93v4.38h-14.91Z"/>
  <path class="cls-1" d="m75.03,30.21c-1.59,0-3.02-.35-4.31-1.05-1.27-.72-2.27-1.69-3.01-2.92-.74-1.23-1.11-2.6-1.11-4.12s.37-2.89,1.11-4.09c.74-1.21,1.74-2.16,3.01-2.85,1.27-.72,2.71-1.08,4.31-1.08s3.04.35,4.31,1.05c1.27.7,2.27,1.66,3.01,2.89.74,1.21,1.11,2.57,1.11,4.09s-.37,2.9-1.11,4.12c-.74,1.23-1.74,2.2-3.01,2.92-1.27.7-2.71,1.05-4.31,1.05Zm0-4.41c.7,0,1.31-.15,1.84-.44.53-.32.93-.75,1.21-1.3.3-.57.44-1.22.44-1.93s-.15-1.34-.44-1.87c-.3-.55-.71-.97-1.24-1.27-.51-.32-1.11-.48-1.81-.48s-1.28.16-1.81.48c-.53.3-.94.72-1.24,1.27-.3.55-.44,1.18-.44,1.9s.15,1.33.44,1.9c.3.55.71.98,1.24,1.3.53.3,1.13.44,1.81.44Z"/>
  <path class="cls-1" d="m87.31,35.89c1.29.59,2.78.89,4.47.89s3.12-.33,4.41-.98c1.29-.66,2.3-1.56,3.04-2.73.74-1.16,1.11-2.54,1.11-4.12v-14.49h-4.76v1.04c-.35-.3-.76-.55-1.21-.75-.82-.4-1.77-.6-2.82-.6-1.42,0-2.67.34-3.77,1.01-1.1.66-1.97,1.56-2.6,2.73-.63,1.14-.95,2.43-.95,3.87s.32,2.71.95,3.87,1.5,2.08,2.6,2.76c1.1.68,2.36,1.01,3.77,1.01,1.04,0,1.98-.2,2.82-.6.41-.19.78-.42,1.11-.69v.97c0,1.08-.35,1.91-1.05,2.51-.68.59-1.62.89-2.82.89-.97,0-1.81-.17-2.51-.51-.68-.34-1.29-.84-1.84-1.49l-2.98,2.98c.74,1.06,1.74,1.87,3.01,2.44Zm6.91-11.26c-.49.3-1.07.44-1.74.44s-1.27-.15-1.78-.44c-.49-.3-.87-.7-1.14-1.21-.27-.53-.41-1.09-.41-1.68,0-.63.14-1.21.41-1.71.27-.51.67-.91,1.17-1.21s1.09-.44,1.74-.44,1.26.15,1.74.44c.51.3.89.7,1.14,1.21.27.51.41,1.08.41,1.71s-.14,1.2-.41,1.71c-.25.49-.63.88-1.14,1.17Z"/>
  <path class="cls-1" d="m110.55,30.21c-1.59,0-3.02-.35-4.31-1.05-1.27-.72-2.27-1.69-3.01-2.92-.74-1.23-1.11-2.6-1.11-4.12s.37-2.89,1.11-4.09c.74-1.21,1.74-2.16,3.01-2.85,1.27-.72,2.71-1.08,4.31-1.08s3.04.35,4.31,1.05c1.27.7,2.27,1.66,3.01,2.89.74,1.21,1.11,2.57,1.11,4.09s-.37,2.9-1.11,4.12c-.74,1.23-1.74,2.2-3.01,2.92-1.27.7-2.71,1.05-4.31,1.05Zm0-4.41c.7,0,1.31-.15,1.84-.44.53-.32.93-.75,1.21-1.3.3-.57.44-1.22.44-1.93s-.15-1.34-.44-1.87c-.3-.55-.71-.97-1.24-1.27-.51-.32-1.11-.48-1.81-.48s-1.28.16-1.81.48c-.53.3-.94.72-1.24,1.27-.3.55-.44,1.18-.44,1.9s.15,1.33.44,1.9c.3.55.71.98,1.24,1.3.53.3,1.13.44,1.81.44Z"/>
  <path class="cls-1" d="m137.28,30.18c-1.04,0-1.99-.2-2.85-.6-.46-.21-.87-.46-1.24-.76v7.54h-4.79V14.45h4.85v1.06c.35-.29.74-.54,1.17-.75.87-.42,1.82-.63,2.85-.63,1.46,0,2.75.35,3.87,1.05,1.14.7,2.03,1.65,2.66,2.85.66,1.21.98,2.58.98,4.12s-.33,2.92-.98,4.12c-.63,1.21-1.52,2.16-2.66,2.85-1.12.7-2.41,1.05-3.87,1.05Zm-.89-4.38c.7,0,1.3-.16,1.81-.48.53-.32.94-.75,1.24-1.3.3-.55.44-1.17.44-1.87s-.15-1.35-.44-1.9c-.3-.55-.71-.97-1.24-1.27-.51-.32-1.1-.48-1.78-.48s-1.28.16-1.81.48c-.51.3-.91.72-1.21,1.27-.3.55-.44,1.18-.44,1.9s.14,1.32.41,1.87c.3.55.71.98,1.24,1.3.53.32,1.12.48,1.78.48Z"/>
  <path class="cls-2" d="m149.55,29.9c.89.23,1.79.35,2.69.35,1.92,0,3.45-.44,4.57-1.33,1.14-.89,1.71-2.08,1.71-3.58,0-.97-.18-1.75-.54-2.35-.36-.61-.82-1.1-1.4-1.46s-1.17-.64-1.81-.86c-.63-.21-1.24-.39-1.81-.54-.57-.15-1.04-.32-1.4-.51-.36-.19-.54-.44-.54-.76,0-.3.14-.52.41-.67.28-.17.69-.25,1.24-.25s1.15.12,1.74.35c.61.23,1.16.63,1.65,1.21l2.76-2.79c-.7-.89-1.61-1.55-2.73-2-1.1-.47-2.3-.7-3.62-.7s-2.34.21-3.27.63c-.93.42-1.65,1-2.16,1.74-.51.72-.76,1.58-.76,2.57,0,.93.18,1.7.54,2.32.36.59.82,1.06,1.39,1.4.57.34,1.17.6,1.81.79.63.19,1.24.37,1.81.54.57.15,1.04.33,1.4.54.38.19.57.48.57.86,0,.3-.16.53-.48.7-.3.17-.73.25-1.3.25-.82,0-1.59-.15-2.28-.44-.7-.32-1.3-.75-1.81-1.3l-2.76,2.79c.53.57,1.16,1.08,1.9,1.52.76.42,1.57.75,2.44.98Z"/>
  <path class="cls-2" d="m167.37,30.21c-1.42,0-2.67-.29-3.77-.86-1.08-.59-1.92-1.4-2.54-2.41-.61-1.04-.92-2.22-.92-3.55v-8.94h4.85v8.88c0,.53.08.98.25,1.36.19.38.46.68.82.89.36.21.79.32,1.3.32.72,0,1.29-.22,1.71-.67.42-.47.63-1.1.63-1.9v-8.88h4.85v8.91c0,1.35-.31,2.55-.92,3.58-.61,1.01-1.46,1.82-2.54,2.41-1.08.57-2.32.86-3.74.86Z"/>
  <path class="cls-2" d="m181.83,14.45h-4.85v15.41h4.85v-9.01c0-.53.11-.97.32-1.33.23-.36.54-.63.92-.82.38-.21.81-.32,1.3-.32.7,0,1.28.22,1.74.67.49.42.73,1.03.73,1.81v9.01h4.85v-9.01c0-.53.11-.97.32-1.33.23-.36.54-.63.92-.82.38-.21.81-.32,1.3-.32.7,0,1.28.22,1.74.67.49.42.73,1.03.73,1.81v9.01h4.85v-9.55c0-1.29-.28-2.39-.83-3.3-.53-.93-1.26-1.64-2.19-2.12-.91-.51-1.96-.76-3.14-.76s-2.29.26-3.27.79c-.63.34-1.18.77-1.66,1.3-.44-.56-.98-1.01-1.61-1.37-.85-.49-1.81-.73-2.89-.73-1.14,0-2.17.24-3.08.73-.4.2-.76.44-1.08.73v-1.14Z"/>
</svg>